<?xml version="1.0" encoding="utf-8"?>
<!-- Generator: Adobe Illustrator 17.0.0, SVG Export Plug-In . SVG Version: 6.00 Build 0)  -->
<!DOCTYPE svg PUBLIC "-//W3C//DTD SVG 1.1//EN" "http://www.w3.org/Graphics/SVG/1.1/DTD/svg11.dtd">
<svg version="1.1" id="Layer_1" xmlns="http://www.w3.org/2000/svg" xmlns:xlink="http://www.w3.org/1999/xlink" x="0px" y="0px"
	 width="165.541px" height="75px" viewBox="0 0 165.541 75" enable-background="new 0 0 165.541 75" xml:space="preserve">
<g>
	<path fill="#58595B" d="M110.048,67.883c-0.307-0.39-0.614-0.675-0.918-0.858c-0.305-0.189-0.644-0.333-1.021-0.437
		c-0.372-0.104-0.754-0.157-1.146-0.157c-0.582,0-1.061,0.066-1.438,0.188c-0.543,0.177-0.961,0.383-1.271,0.617
		c-0.301,0.227-0.561,0.516-0.782,0.861c-0.214,0.348-0.367,0.672-0.464,0.965c-0.084,0.295-0.131,0.633-0.131,1.013
		c0,0.46,0.069,0.889,0.21,1.28c0.146,0.394,0.351,0.746,0.629,1.066c0.271,0.329,0.535,0.572,0.795,0.737
		c0.257,0.167,0.582,0.314,0.968,0.424c0.387,0.118,0.832,0.173,1.325,0.173c0.484,0,0.939-0.066,1.357-0.197
		c0.422-0.133,0.775-0.31,1.059-0.523c0.421-0.321,0.721-0.6,0.904-0.852c0.219-0.313,0.377-0.634,0.474-0.951
		c0.092-0.33,0.139-0.739,0.139-1.225c0-0.434-0.066-0.852-0.213-1.262C110.417,68.433,110.261,68.152,110.048,67.883z
		 M109.587,71.298c-0.087,0.397-0.208,0.736-0.354,0.996c-0.145,0.253-0.352,0.487-0.61,0.688c-0.262,0.204-0.557,0.352-0.899,0.438
		c-0.334,0.088-0.658,0.133-0.97,0.133c-0.338,0-0.65-0.062-0.94-0.177c-0.301-0.117-0.561-0.284-0.805-0.51
		c-0.231-0.221-0.434-0.477-0.598-0.764c-0.156-0.286-0.287-0.623-0.375-1.019c-0.094-0.388-0.143-0.735-0.143-1.045
		c0-0.292,0.049-0.632,0.143-1.013c0.088-0.381,0.223-0.735,0.404-1.055c0.18-0.318,0.371-0.566,0.58-0.732
		c0.207-0.174,0.477-0.32,0.799-0.434c0.324-0.111,0.656-0.168,0.994-0.168c0.418,0,0.809,0.088,1.18,0.248
		c0.363,0.163,0.682,0.387,0.941,0.686c0.257,0.297,0.444,0.628,0.565,1.004c0.148,0.492,0.217,1.001,0.217,1.502
		C109.716,70.479,109.673,70.893,109.587,71.298z"/>
	<path fill="#58595B" d="M80.461,70.433c-0.142-0.011-0.259-0.011-0.361-0.011h-0.522l-0.574-0.021
		c-0.326-0.006-0.564-0.012-0.705-0.012c-0.649,0-1.071,0.012-1.264,0.047c-0.021,0.028-0.041,0.054-0.041,0.074l0.088,0.145
		c0.039,0,0.067,0.004,0.088,0.008l0.152-0.004l0.219,0.018c0.457,0.036,0.728,0.096,0.814,0.213
		c0.082,0.105,0.127,0.48,0.127,1.123c0,0.388-0.027,0.648-0.076,0.779c-0.051,0.132-0.142,0.261-0.283,0.359
		c-0.136,0.108-0.339,0.194-0.609,0.257c-0.271,0.066-0.521,0.097-0.742,0.097c-0.347,0-0.611-0.019-0.781-0.062
		c-0.311-0.08-0.58-0.196-0.805-0.348c-0.338-0.227-0.637-0.503-0.889-0.814c-0.252-0.318-0.445-0.658-0.584-1.021
		c-0.135-0.363-0.205-0.777-0.205-1.232c0-0.797,0.189-1.469,0.564-2.037c0.375-0.557,0.832-0.951,1.361-1.18
		c0.359-0.16,0.871-0.24,1.523-0.24c0.537,0,0.992,0.143,1.363,0.425c0.366,0.289,0.676,0.705,0.928,1.271l0.158-0.027
		c0-0.093-0.01-0.265-0.039-0.524l-0.059-0.852c-0.241-0.141-0.563-0.268-0.971-0.384c-0.408-0.111-0.929-0.158-1.566-0.158
		c-0.934,0-1.666,0.133-2.205,0.406c-0.764,0.39-1.322,0.901-1.666,1.52c-0.342,0.629-0.514,1.266-0.514,1.914
		c0,0.519,0.103,1.033,0.326,1.538c0.151,0.339,0.389,0.679,0.729,1.021c0.342,0.332,0.746,0.597,1.217,0.774
		c0.47,0.19,1.08,0.287,1.814,0.287c0.455,0,0.932-0.041,1.422-0.132c0.264-0.041,0.561-0.127,0.887-0.26
		c0.222-0.092,0.371-0.17,0.443-0.234c0.069-0.063,0.118-0.141,0.143-0.219c0.043-0.138,0.055-0.457,0.055-0.959l-0.006-0.731
		c0-0.243,0.024-0.38,0.061-0.418c0.076-0.086,0.17-0.126,0.295-0.126h0.361c0.088,0,0.205-0.012,0.367-0.048
		c0.017-0.061,0.023-0.116,0.023-0.158c0-0.021,0-0.034-0.01-0.046C80.504,70.441,80.492,70.437,80.461,70.433z"/>
	<path fill="#58595B" d="M100.965,66.67c-0.344-0.161-0.809-0.246-1.396-0.246c-0.332,0-0.616,0.011-0.868,0.034l-0.953,0.053
		c-0.265,0.015-0.435,0.024-0.511,0.024c-0.058,0-0.166,0-0.323-0.009c-0.285-0.017-0.496-0.018-0.619-0.018
		c-0.023,0-0.066,0.001-0.131,0.012c-0.018,0.042-0.026,0.076-0.029,0.105c0,0.023,0.007,0.05,0.023,0.103
		c0.547,0.073,0.891,0.17,1.031,0.302c0.084,0.067,0.123,0.237,0.123,0.502v0.098c0,0.69,0.003,1.368,0.022,2.042
		c0.037,1.432,0.056,2.366,0.056,2.805c0,0.134,0,0.244-0.002,0.324c0,0.109-0.009,0.18-0.009,0.213c0,0.159-0.025,0.26-0.06,0.31
		c-0.026,0.027-0.096,0.068-0.215,0.099l-0.729,0.143l0.008,0.144c0.182-0.007,0.294-0.009,0.328-0.009l0.584,0.018l0.984-0.039
		c0.178,0,0.43,0.01,0.75,0.047c0.166,0.019,0.272,0.028,0.313,0.028c0.068,0,0.123-0.008,0.146-0.028
		c0.023-0.007,0.041-0.046,0.059-0.106c-0.028-0.031-0.049-0.057-0.077-0.067c-0.02-0.01-0.132-0.037-0.332-0.091
		c-0.429-0.093-0.693-0.156-0.783-0.185c-0.025-0.093-0.041-0.222-0.041-0.404c0-0.071,0.004-0.166,0.01-0.261
		c0.012-0.099,0.012-0.171,0.012-0.209l-0.066-2.546v-0.314c-0.022-0.186-0.039-0.656-0.039-1.419c0-0.205,0.013-0.358,0.017-0.455
		l0.008-0.119l-0.022-0.628l0.012-0.08c0.082-0.062,0.353-0.096,0.816-0.096c0.149,0,0.358,0.028,0.627,0.09
		c0.274,0.064,0.475,0.142,0.6,0.234c0.227,0.164,0.416,0.383,0.557,0.654c0.139,0.28,0.213,0.558,0.213,0.847
		c0,0.298-0.072,0.576-0.201,0.848c-0.133,0.268-0.336,0.473-0.596,0.616c-0.258,0.147-0.537,0.218-0.836,0.218
		c-0.195,0-0.346-0.016-0.48-0.063c-0.059-0.025-0.106-0.039-0.159-0.039c-0.023,0.014-0.048,0.034-0.062,0.06
		c0.014,0.057,0.058,0.096,0.129,0.155c0.168,0.112,0.314,0.182,0.447,0.224c0.125,0.039,0.293,0.06,0.486,0.06
		c0.693,0,1.246-0.213,1.654-0.642c0.406-0.419,0.608-0.926,0.608-1.503c0-0.353-0.092-0.708-0.28-1.062
		C101.58,67.097,101.316,66.832,100.965,66.67z"/>
	<path fill="#58595B" d="M94.491,66.512c-0.018,0-0.156-0.005-0.398-0.023c-0.163-0.013-0.322-0.022-0.469-0.022
		c-0.144,0-0.289,0.01-0.431,0.022c0.002,0.055,0.015,0.111,0.029,0.166c0.408,0.08,0.683,0.177,0.826,0.277
		c0.072,0.051,0.119,0.12,0.156,0.219c0.034,0.097,0.067,0.412,0.096,0.951l0.083,1.607c0,0.031-0.006,0.131-0.016,0.302
		c-0.01,0.176-0.01,0.293-0.01,0.352v0.16c0.01,0.278,0.014,0.426,0.014,0.447c0,0.655-0.072,1.148-0.217,1.467
		c-0.154,0.32-0.389,0.574-0.728,0.752c-0.334,0.186-0.817,0.275-1.45,0.275c-0.285,0-0.58-0.05-0.879-0.154
		c-0.295-0.101-0.525-0.235-0.673-0.396c-0.143-0.16-0.254-0.363-0.317-0.609c-0.065-0.25-0.098-0.877-0.104-1.897l-0.012-2.763
		l0.057-0.636c0.013-0.067,0.058-0.118,0.123-0.165c0.096-0.062,0.231-0.096,0.402-0.096h0.146c0.072,0.014,0.109,0.014,0.135,0.014
		c0.062,0,0.14-0.015,0.238-0.037c0.008-0.045,0.016-0.084,0.016-0.104c0-0.031-0.009-0.081-0.028-0.146l-1.464,0.022h-0.885
		l-0.371,0.005h-0.146c-0.059,0-0.106,0.015-0.147,0.038c-0.029,0.021-0.039,0.05-0.039,0.081c0,0.03,0.008,0.058,0.022,0.089
		c0.064,0.053,0.22,0.076,0.461,0.076l0.332-0.004c0.078,0,0.14,0.029,0.181,0.09c0.061,0.087,0.088,0.241,0.088,0.454v0.853
		l-0.016,1.262l0.016,1.558v0.388c0,0.531,0.07,0.934,0.197,1.209c0.093,0.209,0.27,0.416,0.524,0.629
		c0.25,0.207,0.592,0.371,1.021,0.506c0.235,0.07,0.619,0.117,1.155,0.117c0.337,0,0.675-0.061,1.021-0.18
		c0.357-0.104,0.632-0.246,0.841-0.424c0.209-0.169,0.367-0.363,0.478-0.579c0.108-0.213,0.192-0.513,0.252-0.877
		c0.042-0.264,0.063-0.759,0.063-1.493l-0.019-0.581l0.004-0.461l-0.037-1.157c-0.012-0.388-0.021-0.635-0.021-0.753
		c0-0.213,0.043-0.36,0.136-0.444c0.084-0.075,0.36-0.148,0.815-0.209l0.01-0.201h-0.176L94.491,66.512z"/>
	<path fill="#58595B" d="M87.219,73.277c-0.152-0.073-0.289-0.166-0.396-0.28c-0.104-0.116-0.301-0.394-0.584-0.845l-0.711-1.213
		c-0.228-0.375-0.402-0.698-0.523-0.967c0.064-0.055,0.164-0.103,0.291-0.173c0.711-0.348,1.074-0.877,1.074-1.565
		c0-0.359-0.104-0.69-0.299-0.978c-0.197-0.293-0.463-0.502-0.797-0.626c-0.33-0.121-0.908-0.181-1.74-0.181l-1.475,0.014h-0.457
		c-0.072,0-0.152,0.011-0.232,0.015c-0.088,0.008-0.133,0.021-0.154,0.021c-0.131,0-0.219,0.021-0.254,0.05
		c-0.019,0.045-0.023,0.074-0.023,0.104c0,0.035,0.018,0.072,0.045,0.086c0.032,0.016,0.186,0.048,0.479,0.092
		c0.281,0.035,0.463,0.099,0.535,0.195c0.063,0.094,0.096,0.348,0.096,0.772l-0.008,1.007l0.008,1.397l-0.016,0.752l0.02,0.669
		c0,0.151-0.004,0.315-0.012,0.477c-0.029,0.58-0.047,0.918-0.047,1.01v0.065c-0.037,0.097-0.08,0.147-0.133,0.162
		c-0.072,0.028-0.375,0.074-0.914,0.136c-0.053,0.043-0.074,0.086-0.078,0.116l0.01,0.054l0.109,0.022
		c0.307-0.013,0.471-0.015,0.504-0.015l0.742,0.002l0.762-0.012c0.041,0,0.1,0.008,0.172,0.008c0.138,0.012,0.373,0.012,0.705,0.012
		c0.043,0,0.113-0.007,0.213-0.028c0-0.062-0.014-0.107-0.047-0.146l-0.224-0.062c-0.347-0.083-0.556-0.148-0.632-0.191
		c-0.07-0.045-0.125-0.101-0.154-0.172c-0.033-0.121-0.051-0.225-0.039-0.295v-1.908c0-0.371,0.006-0.615,0.016-0.733l0.158,0.008
		l0.465-0.008c0.123,0,0.216,0.025,0.294,0.06c0.07,0.039,0.164,0.137,0.271,0.293l0.827,1.508c0.364,0.617,0.668,1.168,0.935,1.677
		c0.086,0.004,0.154,0.004,0.201,0.004c0.691,0,1.287,0,1.795-0.004c0.008-0.034,0.008-0.058,0.008-0.084
		c0-0.019,0-0.052-0.008-0.086C87.63,73.422,87.372,73.347,87.219,73.277z M84.216,69.728c-0.35,0.07-0.66,0.1-0.93,0.1
		c-0.049,0-0.123-0.008-0.225-0.01c-0.012-0.454-0.016-0.817-0.015-1.107v-0.428l-0.027-1.047c0-0.101,0.006-0.25,0.027-0.441
		c0.158-0.016,0.287-0.016,0.389-0.016c0.407,0,0.762,0.07,1.053,0.216c0.291,0.141,0.496,0.325,0.621,0.539
		c0.164,0.287,0.238,0.552,0.238,0.808c0,0.226-0.047,0.447-0.15,0.664c-0.106,0.215-0.231,0.381-0.385,0.486
		C84.661,69.601,84.464,69.683,84.216,69.728z"/>
	<rect x="151.002" y="66.053" fill="#58595B" width="0" height="0.006"/>
	<path fill="#58595B" d="M123.285,72.945c-0.039-0.026-0.054-0.081-0.06-0.172c0-0.031-0.002-0.078-0.01-0.139
		c-0.037-0.484-0.059-0.881-0.078-1.193c-0.045-1.398-0.076-2.178-0.09-2.336l-0.098-1.709V67.31c0-0.11,0.082-0.205,0.23-0.276
		c0.22-0.11,0.502-0.18,0.856-0.237c0.006-0.062,0.006-0.115,0.006-0.156l0.013-0.166c0-0.024-0.005-0.072-0.007-0.125
		c-0.049-0.002-0.098-0.007-0.129-0.007c-0.032,0-0.166,0.007-0.403,0.03c-0.24,0.019-0.554,0.029-0.939,0.038
		c-0.271,0-0.508,0.012-0.705,0.024c-0.076,0-0.131,0.006-0.168,0.006c-0.105,0-0.17,0.018-0.203,0.043
		c-0.01,0.022-0.102,0.195-0.254,0.541c-0.158,0.334-0.268,0.586-0.332,0.752c-0.422,1.05-0.76,1.818-1.002,2.33
		c-0.145,0.291-0.289,0.608-0.438,0.944c-0.047,0.111-0.101,0.21-0.154,0.296c-0.053-0.106-0.113-0.24-0.178-0.384
		c-0.068-0.149-0.134-0.28-0.191-0.407c-0.059-0.113-0.117-0.248-0.174-0.373c-0.043-0.088-0.074-0.154-0.098-0.197l-0.871-1.896
		l-0.064-0.15c-0.223-0.526-0.406-0.924-0.543-1.203c-0.066-0.117-0.132-0.217-0.191-0.295l-0.26-0.006
		c-0.062-0.006-0.121-0.013-0.152-0.014l-1.637-0.058c-0.189,0-0.355,0.009-0.492,0.012v0.183c0,0.06,0,0.14,0.014,0.231
		c0.06,0.013,0.142,0.04,0.248,0.062c0.414,0.07,0.656,0.156,0.715,0.233c0.064,0.084,0.091,0.394,0.091,0.915
		c0,0.028-0.002,0.098-0.009,0.223l-0.082,2.026l-0.075,1.997c-0.042,0.373-0.106,0.607-0.188,0.693
		c-0.125,0.134-0.423,0.232-0.89,0.285l-0.019,0.381c0.655-0.032,1.021-0.046,1.103-0.052c0.414,0,0.746,0.014,0.99,0.035
		c0.248,0.037,0.471,0.049,0.699,0.059v-0.418l-0.271-0.062c-0.356-0.088-0.581-0.187-0.688-0.312
		c-0.102-0.123-0.157-0.324-0.157-0.604l0.034-1.72l0.052-2.65l0.506,1.1l0.832,1.791c0.015,0.018,0.015,0.03,0.019,0.058
		l0.075,0.136c0.002,0.038,0.029,0.085,0.064,0.154c0.072,0.166,0.172,0.371,0.301,0.646c0.213,0.457,0.365,0.787,0.455,1.012
		l0.303,0.857l0.429,0.014c0.063-0.153,0.108-0.277,0.135-0.369c0.115-0.368,0.311-0.895,0.607-1.586
		c0.022-0.063,0.084-0.193,0.168-0.375c0.065-0.138,0.12-0.25,0.147-0.321l1.396-3.2c0.018,0.105,0.027,0.299,0.039,0.583
		l0.096,1.978c0.004,0.691,0.011,1.234,0.031,1.627c0.006,0.098,0.008,0.205,0.008,0.33c0,0.322-0.026,0.521-0.073,0.591
		c-0.05,0.067-0.164,0.12-0.341,0.151c-0.254,0.037-0.461,0.09-0.608,0.153l-0.017,0.382c0.064,0,0.134-0.005,0.199-0.017
		c0.512-0.049,1.031-0.069,1.574-0.069c0.356,0,0.74,0.019,1.143,0.069c0.409,0.045,0.664,0.062,0.763,0.062
		c0.008-0.076,0.008-0.152,0.008-0.236c0-0.028,0-0.069-0.008-0.131C123.653,73.077,123.317,72.97,123.285,72.945z"/>
	<path fill="#58595B" d="M149.433,69.877c-0.168-0.179-0.418-0.343-0.74-0.488c-0.318-0.146-0.601-0.257-0.826-0.322
		c-0.678-0.196-1.121-0.414-1.334-0.633c-0.207-0.218-0.314-0.449-0.314-0.683c0-0.287,0.107-0.526,0.322-0.719
		c0.217-0.19,0.502-0.286,0.871-0.286c0.389,0,0.715,0.146,1,0.447c0.16,0.17,0.334,0.506,0.49,1.002l0.072,0.007l0.399,0.028
		l0.06-0.016c0.012-0.083,0.02-0.152,0.02-0.211c0-0.216-0.02-0.518-0.068-0.904c-0.031-0.247-0.064-0.447-0.1-0.574
		c-0.353-0.115-0.634-0.196-0.849-0.231c-0.348-0.062-0.617-0.099-0.791-0.099c-0.832,0-1.459,0.207-1.883,0.625
		c-0.424,0.418-0.641,0.914-0.641,1.512c0,0.29,0.074,0.598,0.23,0.919c0.153,0.323,0.358,0.578,0.629,0.765
		c0.268,0.188,0.74,0.41,1.428,0.65c0.682,0.242,1.107,0.436,1.26,0.584c0.264,0.234,0.393,0.492,0.393,0.766
		c0,0.23-0.069,0.436-0.225,0.629c-0.15,0.197-0.344,0.34-0.584,0.422c-0.238,0.086-0.461,0.129-0.664,0.129
		c-0.227,0-0.432-0.031-0.635-0.104c-0.186-0.074-0.354-0.166-0.498-0.279c-0.133-0.117-0.27-0.271-0.381-0.461
		c-0.053-0.092-0.168-0.336-0.344-0.758l-0.521,0.018v0.205c0,0.104,0,0.275,0.01,0.518c0.021,0.475,0.029,0.729,0.029,0.768v0.063
		c0.012,0.06,0.029,0.092,0.047,0.106c0.047,0.043,0.166,0.084,0.354,0.139l0.675,0.195c0.358,0.074,0.67,0.112,0.934,0.112
		c0.392,0,0.722-0.034,0.968-0.1c0.254-0.066,0.496-0.181,0.735-0.325c0.231-0.154,0.406-0.285,0.519-0.398
		c0.16-0.158,0.272-0.33,0.342-0.513c0.133-0.335,0.197-0.68,0.197-1.036c0-0.318-0.047-0.586-0.127-0.799
		C149.81,70.33,149.654,70.106,149.433,69.877z"/>
	<path fill="#58595B" d="M165.163,73.213c-0.181-0.069-0.343-0.116-0.496-0.135c-0.147-0.015-0.256-0.06-0.328-0.109
		c-0.03-0.022-0.09-0.114-0.164-0.271c-0.139-0.293-0.243-0.524-0.307-0.719c-0.138-0.354-0.238-0.611-0.31-0.789
		c-0.123-0.291-0.279-0.668-0.453-1.125c-0.174-0.467-0.373-0.94-0.594-1.43l-0.975-2.302l-0.045-0.101h-0.256h-0.354l-1.323,3.476
		l-1.129,2.963c-0.091,0.166-0.171,0.274-0.229,0.322c-0.066,0.042-0.24,0.097-0.523,0.149c-0.182,0.035-0.305,0.064-0.379,0.082
		l-0.013,0.381h0.104c0.248,0,0.514-0.017,0.789-0.062l0.229-0.046c0.873,0.065,1.426,0.096,1.656,0.096
		c0.012-0.042,0.014-0.085,0.014-0.131c0-0.049-0.002-0.142-0.006-0.278c-0.23-0.031-0.365-0.051-0.398-0.056
		c-0.242-0.032-0.406-0.079-0.492-0.155c-0.055-0.037-0.074-0.109-0.074-0.207c0-0.07,0.029-0.203,0.101-0.399
		c0.25-0.698,0.418-1.136,0.494-1.316l2.139,0.001l0.435,1.098l0.225,0.554c0.02,0.049,0.029,0.096,0.029,0.149
		c0,0.051-0.016,0.092-0.057,0.131c-0.027,0.025-0.138,0.061-0.32,0.109l-0.627,0.131c-0.008,0.123-0.017,0.25-0.017,0.379
		l0.275-0.009l0.948-0.05c0.134-0.016,0.351-0.018,0.642-0.018c0.267,0,0.562,0.018,0.899,0.041
		c0.328,0.026,0.629,0.039,0.908,0.039c0-0.054,0.006-0.098,0.006-0.119C165.187,73.425,165.177,73.334,165.163,73.213z
		 M161.461,70.477c-0.151,0.002-0.67,0.002-1.543-0.012l0.812-2.166c0.109,0.238,0.254,0.571,0.438,1.01
		c0.174,0.442,0.326,0.832,0.438,1.168H161.461z"/>
	<path fill="#58595B" d="M157.906,68.242c0.016-0.066,0.021-0.149,0.021-0.25l0.01-0.286l-0.01-0.494c0-0.526,0-0.907-0.005-1.166
		c-0.069-0.002-0.127-0.005-0.17-0.005l-0.243,0.005c-0.027,0.063-0.048,0.108-0.062,0.136c-0.057,0.154-0.107,0.247-0.158,0.281
		l-0.326,0.046h-1.73l-1.266-0.005l-0.678,0.005l-0.113,0.006c-0.221,0.007-0.479,0.007-0.768,0.007
		c-0.461,0-0.719-0.007-0.77-0.014c-0.05-0.061-0.132-0.176-0.238-0.359c-0.012-0.016-0.025-0.054-0.053-0.09h-0.345
		c-0.028,0.076-0.066,0.215-0.131,0.426c-0.205,0.724-0.358,1.205-0.476,1.455c0.041,0.052,0.156,0.123,0.326,0.217
		c0.047,0,0.115-0.063,0.203-0.178c0.326-0.418,0.561-0.674,0.725-0.763c0.121-0.062,0.353-0.104,0.707-0.104
		c0.638,0,1.013,0.011,1.129,0.025c0.035,0.002,0.062,0.016,0.08,0.032c0.017,0.017,0.027,0.039,0.043,0.076
		c0.019,0.12,0.029,0.473,0.029,1.054l0.029,2.118c0,0.976-0.014,1.692-0.041,2.14c-0.006,0.114-0.033,0.205-0.066,0.275
		c-0.149,0.082-0.422,0.163-0.807,0.257c-0.23,0.05-0.383,0.134-0.465,0.238v0.047l0.004,0.124c0.008,0.029,0.01,0.075,0.014,0.131
		c0.062,0,0.201-0.007,0.412-0.023c0.547-0.043,0.875-0.062,0.988-0.062c0.703,0,1.189,0.009,1.459,0.04
		c0.271,0.022,0.594,0.039,0.979,0.039c0.056,0,0.117,0,0.203-0.003c0.012-0.066,0.023-0.112,0.023-0.146
		c0-0.027-0.018-0.108-0.033-0.248c-0.088-0.029-0.186-0.061-0.301-0.086c-0.246-0.062-0.383-0.084-0.416-0.088
		c-0.156-0.033-0.271-0.053-0.33-0.076c-0.051-0.132-0.072-0.322-0.072-0.574l0.008-0.73l-0.018-1.779v-1.648l-0.006-0.748
		c0-0.092,0.008-0.209,0.031-0.355c0.156-0.016,0.287-0.024,0.391-0.024c0.703,0,1.098,0.01,1.191,0.026
		c0.059,0.02,0.115,0.049,0.156,0.099c0.03,0.032,0.102,0.184,0.215,0.462c0.112,0.273,0.223,0.48,0.317,0.633
		C157.617,68.322,157.752,68.295,157.906,68.242z"/>
	<path fill="#58595B" d="M131.726,73.078c-0.146-0.015-0.25-0.06-0.324-0.109c-0.033-0.022-0.092-0.114-0.17-0.271
		c-0.135-0.293-0.238-0.524-0.303-0.719c-0.138-0.354-0.234-0.611-0.306-0.789c-0.131-0.291-0.281-0.668-0.453-1.125
		c-0.18-0.467-0.379-0.94-0.599-1.43l-0.971-2.302l-0.051-0.101h-0.258h-0.354l-1.33,3.476l-1.127,2.963
		c-0.086,0.166-0.164,0.274-0.229,0.322c-0.062,0.042-0.229,0.097-0.519,0.149c-0.186,0.035-0.305,0.064-0.379,0.082v0.381h0.1
		c0.248,0,0.512-0.017,0.787-0.062l0.229-0.046c0.882,0.065,1.425,0.096,1.658,0.096c0.013-0.042,0.013-0.085,0.013-0.131
		c0-0.049,0-0.142-0.009-0.278c-0.231-0.031-0.371-0.051-0.403-0.056c-0.234-0.032-0.396-0.079-0.486-0.155
		c-0.053-0.037-0.076-0.109-0.076-0.207c0-0.07,0.037-0.203,0.105-0.399c0.25-0.698,0.414-1.136,0.489-1.316l2.138,0.001
		l0.444,1.098l0.218,0.554c0.02,0.049,0.03,0.096,0.03,0.149c0,0.051-0.019,0.092-0.055,0.131c-0.035,0.025-0.144,0.061-0.324,0.109
		l-0.625,0.131c-0.017,0.123-0.017,0.25-0.017,0.379l0.273-0.009l0.953-0.05c0.127-0.016,0.344-0.018,0.637-0.018
		c0.262,0,0.566,0.018,0.894,0.041c0.33,0.026,0.639,0.039,0.916,0.039c0.004-0.054,0.004-0.098,0.004-0.119
		c0-0.062-0.009-0.153-0.031-0.274C132.041,73.144,131.881,73.097,131.726,73.078z M128.524,70.477
		c-0.159,0.002-0.67,0.002-1.539-0.012l0.808-2.166c0.108,0.238,0.252,0.571,0.433,1.01c0.18,0.442,0.325,0.832,0.438,1.168H128.524
		z"/>
	<path fill="#58595B" d="M143.524,66.346c-0.48,0.033-0.834,0.053-1.051,0.053c-0.052,0-0.173-0.01-0.375-0.015l-1.597-0.062
		l0.015,0.484c0.041,0.014,0.106,0.019,0.188,0.02c0.351,0.021,0.594,0.062,0.75,0.133c0.019,0.083,0.032,0.143,0.032,0.178
		l0.015,0.25l0.031,0.625l-0.017,0.31l0.012,0.743c0,0.022-0.02,0.404-0.049,1.145l0.008,0.303l-0.016,1.277l0.008,0.657
		c0,0.204-0.037,0.364-0.1,0.479c-0.117,0.067-0.299,0.132-0.539,0.183c-0.176,0.043-0.293,0.074-0.367,0.103v0.399h0.006
		c0.073-0.006,0.229-0.018,0.473-0.038c0.381-0.036,0.668-0.058,0.865-0.058l0.988,0.01c0.446,0.048,0.694,0.068,0.745,0.08
		c0.068,0.015,0.123,0.018,0.146,0.018c0.021,0,0.084,0,0.203-0.012c0.029-0.006,0.066-0.006,0.111-0.006
		c0.008-0.08,0.008-0.155,0.008-0.191c0-0.066-0.01-0.165-0.02-0.275c-0.199-0.029-0.309-0.043-0.34-0.046
		c-0.191-0.02-0.393-0.058-0.621-0.1c-0.021-0.056-0.033-0.099-0.033-0.129l0.014-0.212l-0.014-1.123l0.023-0.75l-0.01-1.479
		c0-0.336,0.01-0.821,0.02-1.446c-0.01-0.103-0.02-0.237-0.02-0.396c0-0.185,0.014-0.329,0.037-0.426
		c0.122-0.046,0.282-0.095,0.471-0.142c0.19-0.041,0.36-0.097,0.514-0.146c0.006-0.106,0.01-0.185,0.01-0.244
		c0-0.054,0-0.115-0.004-0.176C143.968,66.324,143.798,66.334,143.524,66.346z"/>
	<path fill="#58595B" d="M139.745,73.134c-0.216-0.081-0.358-0.153-0.425-0.219c-0.073-0.065-0.221-0.29-0.438-0.671l-0.891-1.455
		c-0.101-0.155-0.229-0.344-0.386-0.57c-0.071-0.101-0.137-0.193-0.18-0.273c0.506-0.151,0.881-0.387,1.131-0.693
		c0.236-0.311,0.359-0.65,0.359-1.029c0-0.504-0.227-0.953-0.678-1.34c-0.447-0.386-1.057-0.586-1.826-0.586
		c-0.48,0-0.945,0.027-1.383,0.07l-0.699,0.029l-0.291,0.021c-0.023,0-0.168-0.012-0.436-0.034c-0.261,0-0.437,0.004-0.523,0.004
		c-0.162,0-0.328,0.019-0.51,0.043l-0.025,0.067l0.012,0.334c0.099,0.015,0.299,0.034,0.599,0.056l0.331,0.066
		c0.021,0.213,0.027,0.716,0.027,1.486c0,0.358-0.002,0.735-0.014,1.144l-0.014,0.301l0.014,0.523l-0.023,0.668l0.008,1.247
		c0,0.307-0.004,0.486-0.021,0.541c0,0.035-0.008,0.087-0.021,0.164c-0.158,0.057-0.328,0.096-0.523,0.119
		c-0.184,0.031-0.331,0.065-0.427,0.124c-0.013,0.065-0.017,0.129-0.017,0.168c0,0.023,0.004,0.086,0.008,0.18h0.242
		c0.193,0,0.412-0.014,0.646-0.042l0.766-0.052h0.215c0.15,0,0.627,0.031,1.424,0.104l0.229-0.01c0.021,0,0.063,0.003,0.138,0.003
		c0.014-0.095,0.022-0.229,0.022-0.411c-0.215-0.083-0.459-0.154-0.756-0.217c-0.166-0.032-0.306-0.081-0.406-0.143l0.037-1.055
		l-0.028-1.244c0-0.141,0.004-0.271,0.018-0.379c0.178-0.01,0.309-0.018,0.381-0.018c0.271,0,0.465,0.042,0.578,0.115
		c0.072,0.057,0.199,0.262,0.393,0.625c0.398,0.789,0.674,1.362,0.842,1.73c0.062,0.137,0.174,0.346,0.33,0.627l0.189,0.366
		c0.061-0.011,0.146-0.017,0.242-0.028c0.217-0.021,0.352-0.035,0.389-0.035l0.562,0.004c0.174,0,0.321,0.01,0.442,0.031h0.228
		l0.295,0.035l0.108-0.007h0.154c0.004-0.05,0.004-0.097,0.004-0.125c0-0.054-0.013-0.11-0.037-0.171
		C140.046,73.265,139.913,73.197,139.745,73.134z M136.756,69.316c-0.266,0.229-0.713,0.34-1.354,0.34
		c-0.089-0.002-0.208-0.008-0.389-0.017v-0.15c0.004-0.276,0.006-0.495,0.018-0.661l-0.002-0.61l0.014-0.463l-0.012-0.751
		l0.012-0.11c0.123-0.021,0.268-0.027,0.439-0.027c0.356,0,0.623,0.027,0.791,0.076c0.219,0.084,0.397,0.188,0.537,0.334
		c0.1,0.101,0.182,0.256,0.246,0.466c0.063,0.209,0.09,0.423,0.09,0.661C137.146,68.781,137.017,69.092,136.756,69.316z"/>
</g>
<rect x="72.385" y="58.714" fill="#58595B" width="92.802" height="0.529"/>
<g>
	<path fill="#982439" d="M84.495,31.546c-0.506-0.31-1.082-0.503-1.744-0.62c-0.664-0.118-1.598-0.155-2.881-0.155h-0.229h-7.467
		v20.485h2.842v-8.63h4.311h0.314v-0.002c1.395,0,2.444-0.077,3.069-0.19c0.658-0.121,1.276-0.352,1.746-0.623
		c0.898-0.543,1.56-1.245,2.021-2.104c0.428-0.85,0.666-1.863,0.666-3.025c0-1.209-0.238-2.221-0.666-3.109
		C86.016,32.677,85.354,31.979,84.495,31.546z M83.29,39.358c-0.656,0.51-1.824,0.781-3.5,0.781h-0.15v0.002h-4.624v-6.885h4.624
		h0.001h0.385c1.514,0,2.608,0.272,3.264,0.818c0.664,0.509,0.978,1.399,0.978,2.608C84.268,37.963,83.952,38.858,83.29,39.358z"/>
	<path fill="#982439" d="M103.735,43.523c0,1.902-0.425,3.303-1.317,4.233c-0.896,0.932-2.215,1.402-4.045,1.402
		c-1.826,0-3.147-0.469-4.041-1.402c-0.852-0.889-1.283-2.331-1.283-4.233V30.77h-2.836v12.714c0,2.799,0.658,4.862,1.942,6.258
		c1.322,1.399,3.261,2.097,5.908,2.097c2.797,0,4.937-0.699,6.375-2.097c1.437-1.443,2.174-3.501,2.174-6.258V30.77h-2.877V43.523z"
		/>
	<path fill="#982439" d="M123.638,47.794c-1.084,1.048-2.525,1.555-4.236,1.555c-1.979,0-3.571-0.742-4.815-2.256
		c-1.213-1.513-1.83-3.537-1.83-6.023c0-2.681,0.58-4.743,1.789-6.178c1.168-1.481,2.795-2.177,4.896-2.177
		c1.598,0,2.883,0.347,3.891,1.092c0.969,0.697,1.631,1.742,1.902,3.104h2.758c-0.232-2.061-1.082-3.693-2.6-4.898
		c-1.521-1.206-3.461-1.786-5.832-1.786c-2.953,0-5.328,0.93-7.072,2.835c-1.752,1.867-2.646,4.431-2.646,7.659
		c0,3.461,0.852,6.182,2.525,8.168c1.674,1.977,3.967,2.948,6.883,2.948c2.562,0,4.658-0.737,6.291-2.213
		c1.598-1.479,2.493-3.496,2.604-5.985h-2.754C125.312,45.352,124.729,46.746,123.638,47.794z"/>
	<path fill="#982439" d="M143.617,31.546c-0.507-0.31-1.087-0.503-1.75-0.62c-0.654-0.118-1.636-0.155-2.873-0.155h-0.231h-7.462
		v20.485h2.834v-8.63h4.316h0.312v-0.002c1.401,0,2.407-0.077,3.03-0.19c0.699-0.121,1.281-0.352,1.789-0.623
		c0.887-0.543,1.553-1.245,1.979-2.104c0.467-0.85,0.699-1.863,0.699-3.025c0-1.209-0.232-2.221-0.699-3.109
		C145.138,32.677,144.471,31.979,143.617,31.546z M142.375,39.358c-0.621,0.51-1.787,0.781-3.461,0.781h-0.151v0.002h-4.628v-6.885
		h4.625h0.003h0.345c1.558,0,2.646,0.272,3.304,0.818c0.664,0.509,0.976,1.399,0.976,2.608
		C143.388,37.963,143.035,38.858,142.375,39.358z"/>
	<path fill="#982439" d="M164.88,49.936c-0.155-0.349-0.237-0.893-0.313-1.635l-0.232-3.381c-0.08-1.244-0.307-2.141-0.621-2.682
		c-0.352-0.504-0.932-0.893-1.75-1.129c0.938-0.424,1.676-1.047,2.137-1.824c0.504-0.779,0.74-1.752,0.74-2.836
		c0-1.168-0.236-2.139-0.703-2.995c-0.464-0.856-1.125-1.517-2.021-1.979c-0.464-0.239-1.046-0.432-1.668-0.551
		c-0.621-0.116-1.595-0.153-2.878-0.153h-0.508h-0.003h-7.65v20.484h2.838V42.47h4.627h0.188v-0.002
		c1.869,0.04,3.069,0.235,3.579,0.624c0.506,0.431,0.773,1.283,0.894,2.683l0.151,2.681v0.077c0.119,1.401,0.314,2.293,0.545,2.723
		h3.306v-0.544C165.231,50.561,165.036,50.289,164.88,49.936z M160.794,39.283c-0.701,0.547-1.943,0.818-3.734,0.818v0.002h-4.851
		v-6.919h4.854v-0.001c1.869,0,3.114,0.227,3.809,0.736c0.699,0.506,1.01,1.36,1.01,2.564
		C161.882,37.805,161.534,38.74,160.794,39.283z"/>
</g>
<g>
	<polygon fill="#982439" points="51.318,20.053 49.42,21.124 49.42,22.002 51.318,20.932 	"/>
	<path fill="#982439" d="M7.281,47.69c-0.082-0.167-0.197-0.303-0.301-0.438v-0.001c-0.523-0.55-1.21-0.826-1.955-0.855v0.002
		c-0.438,0-0.875,0.109-1.289,0.355c-1.264,0.688-1.676,2.282-0.961,3.491c0.465,0.823,1.344,1.262,2.25,1.262v0.001
		c0.441,0,0.908-0.11,1.32-0.329c0.246-0.137,0.44-0.303,0.635-0.494v0.002C7.719,49.887,7.885,48.678,7.281,47.69z M5.933,50.492
		c-0.303,0.137-0.607,0.219-0.908,0.219V50.71c-0.605,0-1.203-0.301-1.537-0.88c-0.494-0.824-0.221-1.896,0.662-2.39
		c0.27-0.166,0.576-0.219,0.875-0.219v0.001c0.632,0,1.236,0.301,1.566,0.877C7.083,48.924,6.785,49.996,5.933,50.492z"/>
	<polygon fill="#982439" points="56.262,32.115 56.836,31.756 56.262,30.739 	"/>
	<path fill="#982439" d="M7.858,44.337c-0.273,0.167-0.576,0.248-0.877,0.248v0.795c0.439,0,0.877-0.111,1.287-0.328
		c0.275-0.167,0.494-0.33,0.66-0.548v0.001c0.713-0.801,0.879-1.979,0.303-2.971C9.149,41.396,9.04,41.26,8.928,41.15
		c-0.494-0.575-1.209-0.879-1.947-0.88v0.797c0.603,0,1.207,0.33,1.537,0.879C9.012,42.773,8.708,43.87,7.858,44.337z"/>
	<path fill="#982439" d="M58.211,29.174v0.002l1.951,3.267l0.328,0.549l-0.328,0.194h-0.027l-0.934-1.566l-0.99,0.577v-0.001
		L57.5,32.579l0.711,1.208v0.001l0.221,0.387l-0.221,0.109l-0.137,0.085l-0.906-1.597l-0.906,0.523v-0.001l-0.801,0.441l0.801,1.342
		v0.001l0.137,0.249l-0.137,0.084v0.878l1.211-0.687l-0.938-1.565l0.33-0.22l0.936,1.594l0.41-0.245l1.293-0.718l-0.938-1.566
		l0.361-0.216l0.934,1.591l0.301-0.192v-0.001l1.4-0.769l-1.4-2.363l-0.492-0.826l0.492-0.272v-0.001l1.043-0.578l-1.043-1.758
		v0.001l-1.234-2.058v-0.03l-0.717,0.415v0.001l-0.794,0.461l-0.438-0.739l0.738-0.441l0.494-0.271l0.273-0.168l-0.273-0.466
		l-1.455-2.472l1.455-0.823l1.43-0.798c0.22-0.113,0.382-0.276,0.521-0.469c0.328-0.493,0.387-1.151,0.053-1.704
		c0-0.025-0.026-0.054-0.053-0.081c-0.439-0.629-1.234-0.849-1.951-0.579v0.001c-0.055,0.03-0.137,0.056-0.191,0.084l-1.758,1.015
		v-0.001l-2.663,1.485v1.485l2.664,4.48L58.211,29.174z M58.212,26.839L58.212,26.839l0.384-0.219l1.373,2.308l-0.74,0.41
		l-1.017-1.699v-0.002l-0.357-0.578L58.212,26.839z M54.832,21.922l-0.826-1.403l2.256-1.263v0.001l1.949-1.127v-0.001l0.137-0.053
		c0.385-0.249,0.91-0.11,1.156,0.299v-0.027c0.219,0.413,0.08,0.909-0.33,1.125l-0.963,0.553l-1.948,1.099v1.511l1.014,1.731
		l-0.766,0.411l-0.248-0.466l-1.047-1.73l0.773-0.414l0.273,0.467v-1.511L54.832,21.922z"/>
	<path fill="#982439" d="M53.131,20.548l0.467,0.797V19.86l-0.027,0.028c-0.44-0.381-1.1-0.465-1.598-0.19l-0.654,0.356v0.879
		l1.041-0.577C52.66,20.19,52.938,20.246,53.131,20.548z"/>
	<polygon fill="#982439" points="51.427,30.605 52.855,29.802 53.597,31.068 54.335,32.307 54.722,32.966 55.384,32.579 
		56.261,32.115 56.261,30.739 54.968,28.596 56.261,27.887 56.262,27.526 56.016,27.113 55.215,25.767 55.162,25.71 53.732,26.507 
		53.598,26.262 53.598,27.467 54.888,26.755 55.327,27.497 53.897,28.321 55.792,31.482 54.995,31.919 53.598,29.56 53.598,29.558 
		53.514,29.421 53.131,28.762 51.701,29.558 51.318,28.897 51.318,28.896 51.261,28.788 51.318,28.762 52.691,27.994 51.865,26.619 
		52.66,26.179 53.457,27.553 53.598,27.469 53.598,27.467 53.597,27.468 53.597,26.26 53.598,26.262 53.598,26.261 52.937,25.137 
		52.277,25.52 51.48,25.961 51.318,26.069 51.318,26.068 50.82,26.344 51.209,27.002 51.318,27.223 51.318,27.224 51.621,27.717 
		51.318,27.887 50.187,28.514 51.318,30.435 51.318,30.436 	"/>
	<path fill="#982439" d="M6.072,41.316c0.273-0.166,0.603-0.248,0.908-0.248v-0.797c-0.441,0-0.908,0.11-1.322,0.333
		c-0.248,0.136-0.44,0.332-0.633,0.522v-0.001c-0.738,0.799-0.906,2.004-0.328,2.966c0.109,0.163,0.221,0.329,0.328,0.438
		c0.498,0.551,1.211,0.853,1.955,0.853v-0.795c-0.634,0-1.238-0.333-1.57-0.882C4.918,42.855,5.218,41.784,6.072,41.316z"/>
	<polygon fill="#982439" points="55.765,36.563 56.261,36.288 56.262,35.41 56.041,35.519 55.107,33.926 53.597,34.778 
		53.597,34.779 53.598,34.778 53.598,35.218 53.597,35.216 53.597,35.218 54.335,36.481 54.005,36.673 53.598,36.018 53.598,36.016 
		51.319,32.14 51.319,33.68 51.372,33.787 51.319,33.816 51.319,34.834 51.84,34.531 53.597,37.552 53.597,37.554 53.708,37.717 
		55.409,36.757 54.477,35.189 54.831,34.997 	"/>
	<polygon fill="#982439" points="51.318,33.68 51.318,32.14 49.42,28.927 49.42,30.466 49.582,30.713 49.42,30.795 49.42,31.809 
		50.025,31.483 	"/>
	<polygon fill="#982439" points="56.399,27.773 56.262,27.526 56.262,27.887 	"/>
	<polygon fill="#982439" points="53.405,34.886 53.597,35.216 53.597,34.779 	"/>
	<path fill="#982439" d="M1.348,51.042c-1.157-1.979-0.473-4.534,1.562-5.688c0.168-0.084,0.33-0.165,0.525-0.25
		c-0.029-0.026-0.057-0.08-0.084-0.108V44.97H3.324v-0.029l-0.027-0.025C2.113,42.91,2.83,40.38,4.834,39.228
		c0.084-0.026,0.138-0.084,0.191-0.109c0.633-0.3,1.291-0.439,1.955-0.439v-0.77c-0.664,0-1.322,0.11-1.955,0.384
		c-0.191,0.08-0.38,0.165-0.574,0.275c-2.225,1.264-3.104,3.959-2.088,6.236C0.908,45.686,0.08,47.198,0,48.764v0.438
		c0.055,0.741,0.246,1.509,0.686,2.224c0.906,1.566,2.61,2.445,4.339,2.445v0c0,0,0,0,0,0c0,0,0,0,0.001,0v0
		c0.66,0,1.319-0.109,1.954-0.355v-0.854c-0.634,0.303-1.294,0.467-1.954,0.467C3.571,53.103,2.143,52.36,1.348,51.042z"/>
	<polygon fill="#982439" points="8.927,30.741 8.323,31.756 8.927,32.114 8.927,32.116 9.781,32.58 10.467,32.967 10.85,32.308 
		11.592,31.069 11.592,31.066 11.591,31.068 11.591,29.561 10.192,31.92 9.397,31.483 11.262,28.322 9.862,27.498 10.305,26.756 
		11.592,27.469 11.592,27.468 11.733,27.552 12.526,26.178 13.299,26.618 12.498,27.993 13.873,28.761 13.873,28.762 13.928,28.788 
		13.873,28.896 13.873,28.897 13.873,30.436 15,28.515 13.873,27.887 13.873,27.886 13.572,27.716 13.873,27.223 13.982,27.002 
		14.369,26.344 13.873,26.068 13.707,25.959 12.912,25.518 12.25,25.135 11.592,26.26 11.592,26.261 11.427,26.508 10.029,25.711 
		9.97,25.768 9.175,27.114 8.927,27.527 8.927,27.528 8.791,27.773 8.927,27.886 8.927,27.888 10.22,28.597 8.927,30.74 	"/>
	<path fill="#982439" d="M51.319,47.14c0.683-0.439,1.482-0.66,2.279-0.66h0.219l-0.219-0.109l-0.965-0.552l-0.246-0.137
		l-1.068-0.604v0.879l0.303,0.166c-0.112,0.029-0.194,0.082-0.303,0.138V47.14z"/>
	<path fill="#982439" d="M11.592,53.184v-0.002c0.441,0,0.881-0.109,1.291-0.326c0.441-0.25,0.769-0.578,0.99-0.988v-0.001
		c0.412-0.744,0.439-1.678,0-2.473v0.001l-0.025-0.032c-0.5-0.822-1.375-1.289-2.256-1.289v0.001c-0.467,0-0.904,0.111-1.318,0.357
		c-1.234,0.685-1.674,2.254-0.961,3.49C9.807,52.746,10.688,53.184,11.592,53.184z M10.688,49.117
		c0.271-0.163,0.574-0.219,0.904-0.219v-0.002c0.603,0,1.209,0.305,1.537,0.853c0.498,0.853,0.196,1.924-0.656,2.417
		c-0.277,0.139-0.578,0.22-0.881,0.22v0.001c-0.632,0-1.238-0.301-1.562-0.879C9.532,50.685,9.833,49.613,10.688,49.117z"/>
	<polygon fill="#982439" points="51.318,45.079 49.42,44.009 49.42,44.887 51.318,45.958 	"/>
	<path fill="#982439" d="M51.318,46.262c-0.742,0.357-1.402,0.905-1.898,1.618v1.979c0.082-0.438,0.25-0.877,0.496-1.317
		c0.357-0.578,0.849-1.071,1.402-1.401V46.262z"/>
	<path fill="#982439" d="M62.416,50.245c0.711-1.209,0.301-2.804-0.963-3.491c-0.41-0.246-0.854-0.355-1.291-0.355v-0.001
		c-0.742,0.027-1.455,0.303-1.951,0.854v-0.001c-0.111,0.136-0.217,0.272-0.33,0.439c-0.576,0.988-0.408,2.196,0.33,2.994v0.002
		c0.193,0.191,0.385,0.356,0.631,0.494c0.416,0.219,0.881,0.328,1.32,0.328v-0.001C61.07,51.507,61.947,51.069,62.416,50.245z
		 M61.699,49.833c-0.328,0.579-0.932,0.88-1.537,0.88v-0.001c-0.3,0-0.631-0.082-0.904-0.219c-0.853-0.496-1.158-1.569-0.662-2.392
		c0.332-0.578,0.935-0.879,1.566-0.879v0.001c0.301,0,0.605,0.055,0.881,0.219C61.92,47.936,62.197,49.007,61.699,49.833z"/>
	<path fill="#982439" d="M62.83,44.803c1.01-2.277,0.135-4.97-2.09-6.234c-0.191-0.108-0.387-0.194-0.578-0.274v-0.001
		c-0.631-0.274-1.291-0.384-1.951-0.384c-0.658,0-1.346,0.135-1.949,0.384c-0.991,0.411-1.84,1.101-2.391,2.062
		c-0.111,0.164-0.193,0.326-0.273,0.494c-0.356,0.824-0.467,1.703-0.387,2.528l-1.893-1.073v-0.002l-1.898-1.041v0.877l1.898,1.045
		v0.002l2.139,1.207l0.141,0.084l1.043,0.603c-0.824-1.265-0.931-2.941-0.111-4.34c0.412-0.687,1.017-1.238,1.732-1.595
		c0.603-0.301,1.263-0.465,1.949-0.465c0.66,0,1.32,0.138,1.951,0.439v0.001c0.053,0.025,0.109,0.083,0.164,0.109
		c2.033,1.154,2.75,3.683,1.566,5.688l-0.027,0.025v0.029h-0.027v0.026c-0.029,0.026-0.055,0.082-0.084,0.108
		c0.193,0.084,0.355,0.164,0.527,0.248c2.03,1.155,2.715,3.709,1.559,5.688c-0.793,1.318-2.221,2.059-3.678,2.087v0.742
		c1.731,0,3.434-0.879,4.34-2.445c0.413-0.714,0.633-1.482,0.686-2.224v-0.439C65.107,47.195,64.283,45.686,62.83,44.803z"/>
	<path fill="#982439" d="M51.318,49.395c-0.441,0.795-0.416,1.729,0,2.473V49.395z"/>
	<path fill="#982439" d="M60.49,44.091c0.58-0.962,0.414-2.167-0.328-2.966c-0.193-0.189-0.385-0.386-0.631-0.522
		c-0.414-0.224-0.879-0.332-1.32-0.332c-0.738,0-1.455,0.304-1.949,0.879c-0.111,0.109-0.221,0.248-0.305,0.384
		c-0.572,0.991-0.41,2.17,0.305,2.971c0.164,0.216,0.385,0.381,0.658,0.548c0.412,0.217,0.853,0.328,1.291,0.328
		c0.74,0,1.459-0.303,1.951-0.854v0.002C60.271,44.42,60.381,44.254,60.49,44.091z M59.777,43.704
		c-0.328,0.549-0.935,0.882-1.566,0.882c-0.303,0-0.604-0.081-0.879-0.248c-0.879-0.467-1.152-1.565-0.654-2.391
		c0.326-0.549,0.929-0.879,1.533-0.879c0.302,0,0.631,0.08,0.906,0.246C59.968,41.783,60.271,42.855,59.777,43.704z"/>
	<path fill="#982439" d="M51.319,51.869c0.218,0.411,0.547,0.737,0.986,0.987c0.414,0.218,0.854,0.328,1.293,0.328v-0.002
		c0.906,0,1.787-0.437,2.281-1.262c0.711-1.237,0.271-2.804-0.965-3.491c-0.41-0.246-0.849-0.355-1.316-0.355v0.001
		c-0.907,0-1.758,0.467-2.25,1.291l-0.029,0.031V51.869z M52.059,49.75c0.328-0.548,0.935-0.852,1.539-0.852v-0.002
		c0.301,0,0.633,0.057,0.906,0.22c0.849,0.495,1.152,1.568,0.658,2.391c-0.33,0.578-0.931,0.879-1.564,0.879v0.001
		c-0.303,0-0.604-0.082-0.879-0.22C51.866,51.673,51.565,50.602,52.059,49.75z"/>
	<path fill="#982439" d="M58.02,52.555c-0.166-0.082-0.328-0.193-0.494-0.33c-0.053,0.162-0.141,0.328-0.25,0.492
		c-0.272,0.467-0.629,0.852-1.014,1.18v-0.001c-0.77,0.577-1.703,0.881-2.664,0.878v0.003c-0.715,0.026-1.457-0.164-2.117-0.549
		c-0.053-0.026-0.109-0.056-0.162-0.084v0.883c0.74,0.355,1.506,0.519,2.279,0.519v-0.002c0.932,0,1.863-0.247,2.664-0.742v0.003
		c0.603-0.354,1.154-0.85,1.566-1.482c0.11,0.056,0.246,0.137,0.383,0.193c0.631,0.245,1.293,0.355,1.951,0.355v-0.742
		c-0.658,0-1.32-0.164-1.951-0.467C58.156,52.633,58.1,52.605,58.02,52.555z"/>
	<polygon fill="#982439" points="33.488,45.189 36.865,43.239 39.777,41.564 39.777,34.42 36.865,36.067 36.865,36.069 
		33.488,38.019 33.488,38.02 33.131,38.212 33.131,45.381 33.488,45.19 	"/>
	<polygon fill="#982439" points="28.322,43.238 31.701,45.216 31.701,45.217 32.031,45.382 32.031,38.213 31.701,38.046 
		31.701,38.045 28.322,36.095 28.322,36.097 25.384,34.421 25.384,41.566 28.322,43.24 	"/>
	<polygon fill="#982439" points="28.322,44.449 22.279,40.986 19.586,39.447 19.586,52.966 22.279,54.529 28.322,57.966 
		31.701,59.916 31.701,59.916 32.056,60.106 32.056,46.591 31.701,46.371 	"/>
	<polygon fill="#982439" points="42.883,28.678 37.774,31.564 36.866,31.564 36.866,32.332 42.882,32.332 42.882,31.564 
		39.339,31.564 42.884,29.558 42.884,29.558 45.876,27.888 46.399,28.735 46.4,26.702 42.883,28.678 	"/>
	<path fill="#982439" d="M36.865,65.19c2.229-0.605,4.288-1.679,6.018-3.076v-0.002c1.372-1.129,2.552-2.471,3.517-3.983
		c0.137-0.247,0.301-0.497,0.438-0.771v0.001c0.961-1.758,1.621-3.737,1.814-5.852c0.137,0.658,0.383,1.291,0.767,1.869V51.37
		c0,0.001,0.001,0.002,0.001,0.003v-0.002c-0.025-0.138-0.025-0.304-0.055-0.438c-0.025-0.359,0-0.716,0.055-1.072v-1.979
		c-0.055,0.11-0.111,0.193-0.166,0.304c-0.246,0.383-0.408,0.797-0.518,1.209v-4.89l0.684,0.382v-0.879l-0.684-0.385v-1.896
		l0.684,0.412v-0.877l-0.684-0.412v-8.134L49.42,33.9l0.908,1.483l0.99-0.549v-1.018l-0.664,0.383L49.42,32.14l-0.139-0.246
		l0.139-0.085v-1.014l-1.375,0.769h-1.207v-0.001H46.4v0.001h-1.732c0.605-0.496,1.181-1.015,1.732-1.594
		c0.137-0.168,0.274-0.331,0.438-0.493v0.001l0.77,1.344l1.541-0.852l0.271,0.496v-1.539l-2.582-4.397L46.4,23.789v-0.001
		l-0.029-0.054H46.4l0.438-0.246v-0.001l2.582-1.485v-0.878l-2.582,1.483v0.001L46.4,22.857l-1.095,0.604l0.461,0.825l-0.492,0.273
		c-0.411-2.501-1.239-4.943-2.391-7.225v-0.001c-1.512-2.935-3.544-5.604-6.018-7.854V9.478c-0.851-0.77-1.758-1.485-2.716-2.171
		V5.603h2.004h0.494V2.416h-0.768l-1.73,0.028V0.77V0h-0.66v3.185h0.66h1.73v1.651h-2.391h-0.111v2.389h-1.676V4.836h-2.5V3.185
		h1.703h0.797V0.77h1.676v2.415h0.111V0h-1.787h-0.797v0.77v1.674l-1.703-0.028h-0.797v3.187H28.9h2.005v1.704
		c-0.906,0.632-1.758,1.346-2.582,2.06v1.126c0.935-0.906,1.949-1.731,3.023-2.5h0.355h1.787h0.248
		c1.098,0.798,2.142,1.677,3.128,2.61v0.001c0.303,0.301,0.607,0.604,0.908,0.904c-0.275,0.22-0.576,0.414-0.907,0.549v0
		c-1.097,0.498-2.361,0.412-3.377-0.218c-0.357-0.22-0.658-0.492-0.932-0.824c-0.25,0.302-0.552,0.55-0.855,0.769
		c-1.013,0.661-2.279,0.771-3.379,0.328v0.001c-0.356-0.135-0.717-0.354-1.018-0.605c0.33-0.356,0.663-0.687,1.018-1.015V9.367
		c-2.468,2.223-4.533,4.861-6.043,7.777v-0.001c-1.183,2.304-2.033,4.806-2.473,7.361l-0.247-0.136v-0.001l-0.164-0.082l0.164-0.276
		v-0.001l0.328-0.549l-0.328-0.19v0.001l-0.797-0.44l-0.408-0.222l-2.588-1.483v-0.001l-1.893-1.071l-0.661-0.356
		c-0.496-0.275-1.153-0.191-1.594,0.19l-0.027-0.027l-2.664-1.484v-0.001l-1.76-1.015c-0.053-0.027-0.136-0.054-0.187-0.083v0
		c-0.719-0.271-1.514-0.051-1.955,0.579c-0.027,0.027-0.052,0.056-0.053,0.081c-0.328,0.553-0.275,1.211,0.053,1.704
		c0.139,0.193,0.301,0.356,0.523,0.469l1.432,0.798l1.453,0.823L6.98,24.202l-0.277,0.466l0.277,0.168l0.49,0.271l0.742,0.441
		l-0.439,0.739L6.98,25.825L6.26,25.41v0.03l-1.236,2.058V27.5l-1.04,1.756l1.04,0.577v0.001l0.498,0.272l-0.498,0.826v0.001
		l-1.399,2.36l1.4,0.77l0.301,0.192l0.936-1.591l0.357,0.216l-0.934,1.566l1.295,0.718v-0.882l-0.22-0.108l0.221-0.387v-0.002
		l0.712-1.206L6.98,32.196l-0.99-0.577l-0.936,1.566H5.025l-0.328-0.194l0.328-0.549v-0.001l1.954-3.265v-1.539l-1.021,1.701
		l-0.74-0.41l1.373-2.308l0.389,0.219l0.355,0.22L6.98,27.636v1.539l1.947-3.351v0.002l2.664-4.48v-0.002l0.469-0.797
		c0.164-0.302,0.465-0.359,0.768-0.192l1.045,0.577l1.893,1.07v0.001l2.588,1.485l0.408,0.22l0.055,0.027l-0.055,0.083l-0.408,0.712
		l-2.587,4.396v1.539l0.277-0.496l1.508,0.852h0.029l0.746-1.264l0.027,0.055v0.002c0.135,0.165,0.271,0.302,0.408,0.466v-0.001
		c0.277,0.246,0.523,0.525,0.796,0.769v0.001c0.276,0.251,0.553,0.496,0.854,0.715h-0.853v-0.001h-0.797h-0.408v0.001h-1.236
		l-1.352-0.769l-0.16-0.082l0.16-0.247v-1.539l-1.893,3.213l-2.281,3.876l-0.412,0.657l-0.33-0.192l0.742-1.263l0.164-0.332
		l-0.164-0.109v0.001l-1.51-0.852L9.15,35.519L8.929,35.41v0.878l0.494,0.275l0.932-1.566l0.359,0.192l-0.932,1.568l1.701,0.96
		l0.109-0.163l1.756-3.023l0.525,0.303v-1.018l-0.082-0.029l0.082-0.107l1.291-2.197l0.602,0.326l0.141,0.085l-0.141,0.246
		l-1.234,2.059l-0.658-0.383v1.018l0.986,0.549l0.906-1.482V33.9l0.633-1.1v8.078l-0.633,0.356l-1.893,1.068v0.001l-1.895,1.073
		c0.082-0.823-0.03-1.701-0.386-2.525V40.85c0-0.001-0.001-0.001-0.001-0.002c0,0,0,0,0,0v0c-0.084-0.167-0.163-0.329-0.274-0.492
		c-0.547-0.961-1.399-1.651-2.389-2.062c-0.606-0.249-1.289-0.384-1.947-0.384v0.77c0.683,0,1.342,0.163,1.947,0.465
		c0.712,0.358,1.318,0.907,1.73,1.595c0.825,1.4,0.715,3.075-0.109,4.34l1.043-0.603v-0.001l0.14-0.083l2.141-1.209v-0.001
		l1.893-1.045l0.633-0.384v1.896l-0.633,0.356v0.002l-1.893,1.07v0.001l-1.072,0.607l-0.246,0.135l-0.963,0.551v-0.001l-0.219,0.109
		h0.219v0.001c0.801,0,1.592,0.221,2.281,0.66v-0.879c-0.112-0.056-0.192-0.11-0.301-0.138l0.301-0.166v-0.001l1.893-1.071v-0.002
		l0.633-0.357v4.699c-0.109-0.358-0.273-0.713-0.465-1.043c-0.055-0.11-0.111-0.193-0.168-0.304v0.002
		c-0.491-0.714-1.153-1.262-1.892-1.618v0.879c0.548,0.33,1.045,0.823,1.402,1.401c0.244,0.44,0.386,0.879,0.49,1.317v-0.002
		c0.057,0.356,0.084,0.711,0.057,1.072c-0.027,0.135-0.027,0.301-0.057,0.438v0.003c-0.217,1.126-0.879,2.143-1.893,2.774
		c-0.057,0.027-0.111,0.056-0.166,0.082c-0.658,0.385-1.4,0.575-2.115,0.549v0.001c-0.961,0-1.895-0.304-2.664-0.88v-0.001
		c-0.385-0.328-0.74-0.714-1.018-1.182c-0.107-0.163-0.191-0.33-0.246-0.492C7.5,52.359,7.336,52.47,7.141,52.551
		c-0.056,0.053-0.109,0.08-0.16,0.109v0.853c0.135-0.053,0.244-0.135,0.383-0.193c0.41,0.632,0.959,1.128,1.564,1.482v0.003
		c0.799,0.494,1.73,0.741,2.664,0.741c0.771,0,1.537-0.165,2.281-0.52v0.002c0.084-0.059,0.137-0.086,0.221-0.141
		c0.686-0.384,1.264-0.906,1.672-1.509v-0.003c0.359-0.523,0.605-1.1,0.719-1.705c0.244,2.087,0.879,4.038,1.869,5.795v0.001
		c0.135,0.221,0.271,0.467,0.408,0.688v0.003c0.25,0.385,0.523,0.767,0.796,1.152v0.001c0.799,1.043,1.705,1.98,2.721,2.803v0.001
		c1.756,1.428,3.793,2.471,6.043,3.076c1.07,0.304,2.227,0.492,3.379,0.549c0.303,0,0.578,0.027,0.879,0.027
		c0.304,0,0.605-0.027,0.908-0.027C34.642,65.655,35.767,65.494,36.865,65.19z M8.927,24.313v-0.002L8.65,24.778l-0.74-0.411
		l1.018-1.731l0.273-0.467l0.744,0.414L8.927,24.313z M10.354,21.923l-1.426-0.798v-0.001L6.98,20.026l-0.965-0.553
		c-0.412-0.216-0.549-0.712-0.33-1.125v0.027c0.248-0.409,0.744-0.548,1.156-0.299l0.139,0.053l1.947,1.127v0.001l2.253,1.263
		L10.354,21.923z M48.68,29.201l-0.74,0.412l-1.102-1.896v-0.001l-0.191-0.269l0.191-0.114v0.001l0.553-0.304L48.68,29.201z
		 M26.758,12.087c0.464,0.411,0.988,0.688,1.564,0.879v-0.001c1.1,0.357,2.336,0.248,3.379-0.275
		c0.302-0.162,0.578-0.354,0.855-0.577c0.299,0.247,0.575,0.467,0.932,0.634c1.043,0.492,2.278,0.575,3.376,0.163v0.001
		c0.52-0.163,1.018-0.441,1.428-0.824c0.443,0.469,0.826,0.933,1.209,1.429h-2.636h-0.001h-3.376h-1.787h-0.002h-3.377h-2.775
		C25.934,13.021,26.346,12.556,26.758,12.087z M24.97,14.312h3.352h3.377h0.002h1.787h3.376h0.001h3.216v-0.027
		c0.549,0.771,1.07,1.564,1.537,2.416c-1.483,0.797-3.134,1.126-4.753,1.045c-1.152-0.08-2.306-0.358-3.377-0.853
		c-0.332-0.165-0.633-0.327-0.932-0.497c-0.277,0.169-0.552,0.303-0.855,0.44v0.001c-1.072,0.524-2.224,0.799-3.379,0.881v0.001
		c-1.674,0.137-3.352-0.22-4.889-1.018C23.898,15.876,24.421,15.082,24.97,14.312z M22.279,19.011v0.001
		c0.25-0.579,0.526-1.1,0.799-1.65c1.619,0.906,3.432,1.289,5.244,1.154v-0.001c1.154-0.057,2.283-0.357,3.379-0.825v-0.001
		c0.302-0.133,0.578-0.273,0.855-0.44c0.299,0.167,0.6,0.33,0.932,0.469c1.1,0.468,2.224,0.74,3.376,0.824v0c0,0,0.001,0,0.001,0
		c0,0,0,0,0,0c1.76,0.081,3.517-0.304,5.138-1.181c0.303,0.605,0.577,1.181,0.85,1.812h-5.988v0.001h-3.377h-1.787h-0.002h-3.377
		h-6.043v-0.001h-0.057C22.222,19.12,22.252,19.065,22.279,19.011z M21.894,19.969h0.385v0.001h6.043h3.377h0.002h1.787h3.377
		v-0.001h6.018v0.001h0.303c0.192,0.524,0.383,1.07,0.549,1.622c-0.274,0.138-0.579,0.275-0.852,0.386
		c-1.457,0.604-3.078,0.958-4.643,0.958c-0.437,0-0.906-0.025-1.375-0.079c-1.152-0.138-2.306-0.441-3.377-0.879
		c-0.332-0.141-0.633-0.305-0.932-0.471c-0.277,0.166-0.552,0.304-0.855,0.415c-1.072,0.465-2.224,0.767-3.379,0.935
		c-0.492,0.054-0.988,0.079-1.484,0.079c-1.538,0-3.129-0.329-4.559-0.934c-0.33-0.136-0.633-0.272-0.961-0.439
		C21.511,21.014,21.675,20.492,21.894,19.969z M21.095,22.36c0.387,0.192,0.774,0.358,1.184,0.523
		c1.43,0.55,3.022,0.851,4.559,0.851c0.496,0,0.992-0.027,1.484-0.082c1.154-0.137,2.307-0.415,3.379-0.853
		c0.302-0.11,0.578-0.247,0.855-0.357c0.299,0.14,0.6,0.277,0.932,0.415c1.07,0.412,2.225,0.686,3.377,0.795
		c0.469,0.055,0.937,0.082,1.375,0.082c1.565,0,3.186-0.327,4.643-0.877c0.359-0.138,0.742-0.304,1.068-0.47
		c0.222,0.742,0.386,1.511,0.523,2.28h-1.591v-0.002h-6.018v0.002h-3.377l-1.786-0.001v0.798h0.467
		c-0.057,0.821-0.217,1.647-0.467,2.421v2.219c0.386-0.795,0.687-1.618,0.906-2.443c0.223,0.825,0.494,1.647,0.88,2.415v0.004
		c0.137,0.303,0.301,0.605,0.467,0.88l-0.467,0.276v-0.001l-0.575,0.329h-0.607l-0.605-0.329v0.001l-0.465-0.276
		c0.164-0.275,0.326-0.577,0.465-0.854v-2.219c-0.273,0.928-0.685,1.808-1.207,2.662l-2.172-1.238l-2.445-1.371
		c0.443-0.717,0.716-1.542,0.771-2.475h1.674h3.379v-0.798h-3.379l-6.043,0.001v0h-1.676C20.741,23.899,20.904,23.13,21.095,22.36z
		 M39.971,27.552c-0.357-0.605-0.578-1.292-0.658-2.087h3.569h0.001h0.798l-0.798,0.467v0L39.971,27.552z M33.02,25.465h0.468h3.377
		v-0.002h1.648c0.082,0.933,0.358,1.758,0.799,2.475l-2.447,1.371v0.002l-2.17,1.24c-0.521-0.853-0.933-1.733-1.206-2.66v-0.005
		C33.241,27.112,33.077,26.287,33.02,25.465z M21.511,25.466h0.768h3.598c-0.082,0.795-0.301,1.482-0.66,2.087l-2.938-1.648v0
		L21.511,25.466z M18.354,26.069l0.408-0.713l0.25-0.412l0.546,0.301v0.001l2.721,1.538l6.043,3.406l2.42,1.374h-2.42h-0.906
		l-5.137-2.886l-2.72-1.537V27.14l-0.797-0.439v0.001l-0.408-0.246v-0.002l-0.168-0.109L18.354,26.069z M18.354,27.718v-0.002
		l-1.102,1.896l-0.74-0.412l1.293-2.171l0.549,0.304v0.002l0.191,0.114L18.354,27.718z M19.559,29.779L19.559,29.779
		c-0.274-0.277-0.547-0.551-0.797-0.852v0.001l-0.023-0.056l0.023-0.083v-0.001l0.549-0.902l0.247,0.132v0.001l2.721,1.539
		l3.574,2.006h-3.574h-0.604C20.933,31.044,20.217,30.437,19.559,29.779z M31.701,64.969c-1.152-0.082-2.308-0.278-3.379-0.578
		c-2.277-0.63-4.34-1.755-6.043-3.266v-0.001c-1.045-0.935-1.95-2.004-2.72-3.159v0c-0.274-0.44-0.547-0.908-0.797-1.375v-0.001
		c-0.137-0.302-0.274-0.575-0.408-0.853v-0.001c-0.744-1.756-1.156-3.651-1.184-5.658V32.332h1.184h0.408h0.796h0.001h2.72h6.043
		h3.379v-0.001h1.787v0.001h3.377v-0.768h-2.416l2.416-1.374v-0.002l6.017-3.377v0l3.295-1.868l0.223,0.385v0.001l0.438,0.74v0.001
		l0.166,0.276l-0.166,0.109v-0.001L46.4,26.702v2.032v0.055v0.026c-0.88,1.045-1.898,1.952-3.024,2.749h-0.492v0.768H46.4h0.438
		h1.129v17.747c-0.027,1.952-0.416,3.817-1.129,5.551v-0.001c-0.137,0.303-0.301,0.603-0.438,0.932
		c-0.88,1.705-2.088,3.271-3.518,4.532v0.002c-1.703,1.509-3.763,2.639-6.017,3.296c-1.068,0.3-2.222,0.496-3.377,0.578
		c-0.302,0-0.603,0.026-0.908,0.026C32.279,64.995,32.004,64.969,31.701,64.969z"/>
	<polygon fill="#982439" points="36.865,57.966 36.865,57.967 42.883,54.53 42.883,54.529 45.602,52.966 45.602,39.448 
		42.883,41.016 36.865,44.449 33.488,46.371 33.131,46.59 33.131,60.105 33.488,59.916 	"/>
	<path fill="#982439" d="M49.419,53.376L49.419,53.376c0.414,0.605,0.992,1.127,1.674,1.51c0.084,0.056,0.141,0.082,0.225,0.14
		v-0.881c-1.016-0.63-1.675-1.646-1.898-2.772v2.005C49.42,53.377,49.419,53.377,49.419,53.376z"/>
	<polygon fill="#982439" points="12.06,28.762 11.673,29.421 11.591,29.558 11.591,29.561 11.592,29.559 11.592,31.066 
		12.335,29.802 13.761,30.605 13.872,30.436 13.873,28.897 13.49,29.558 	"/>
	<polygon fill="#982439" points="7.085,34.368 6.981,34.283 6.981,35.165 7.391,35.41 8.323,33.816 8.651,34.036 7.719,35.601 
		8.928,36.288 8.928,35.41 8.791,35.326 8.928,35.077 8.928,35.078 9.727,33.736 8.928,33.295 8.928,33.294 8.021,32.771 	"/>
	<path fill="#982439" d="M11.592,59.592c0.112-0.222,0.164-0.528,0.141-0.909v-0.162c-0.029-0.36,0-0.636,0.082-0.772
		c0.027-0.08,0.08-0.165,0.164-0.218c0.08-0.084,0.164-0.137,0.246-0.166c0.22-0.111,0.439-0.111,0.658-0.027
		c0.193,0.057,0.355,0.219,0.443,0.411c0.107,0.222,0.107,0.412,0.021,0.577c-0.051,0.167-0.219,0.328-0.436,0.439l0.139,0.328
		l0.025-0.029c0.328-0.131,0.522-0.327,0.631-0.601c0.111-0.249,0.084-0.55-0.055-0.881c-0.135-0.3-0.355-0.494-0.658-0.601
		c-0.301-0.14-0.601-0.11-0.906,0.023c-0.273,0.107-0.468,0.275-0.605,0.497c-0.11,0.222-0.166,0.492-0.139,0.879v0.269
		c0.03,0.281,0,0.47-0.027,0.58c-0.025,0.137-0.08,0.221-0.162,0.304c-0.056,0.079-0.168,0.164-0.273,0.217
		c-0.276,0.11-0.498,0.11-0.719,0.028c-0.217-0.08-0.383-0.245-0.492-0.495c-0.109-0.221-0.109-0.44,0-0.658
		c0.084-0.19,0.301-0.356,0.576-0.495l-0.166-0.357c-0.383,0.195-0.658,0.44-0.765,0.718c-0.139,0.302-0.114,0.602,0.025,0.962
		c0.166,0.355,0.414,0.578,0.711,0.687c0.279,0.111,0.61,0.111,0.965-0.056C11.291,59.976,11.483,59.78,11.592,59.592z"/>
	<path fill="#982439" d="M12.853,62.585c-0.356,0.192-0.659,0.245-0.93,0.245c-0.277-0.03-0.468-0.163-0.607-0.385
		c-0.162-0.273-0.137-0.549,0.084-0.82c0.192-0.305,0.579-0.606,1.184-0.936c0.574-0.357,1.069-0.524,1.426-0.549
		c0.36-0.056,0.604,0.08,0.77,0.356c0.139,0.218,0.139,0.414,0.057,0.633c-0.082,0.217-0.248,0.414-0.551,0.604l0.219,0.328
		c0.358-0.219,0.606-0.49,0.715-0.8c0.084-0.298,0.056-0.627-0.139-0.959c-0.244-0.383-0.576-0.577-1.014-0.55
		c-0.414,0-0.99,0.191-1.674,0.605c-0.719,0.386-1.156,0.771-1.377,1.125c-0.219,0.387-0.219,0.74,0,1.158
		c0.194,0.299,0.467,0.493,0.799,0.549c0.355,0.055,0.769-0.055,1.234-0.279L12.853,62.585z"/>
	<polygon fill="#982439" points="16.098,62.035 12.393,64.588 12.609,64.891 16.318,62.336 	"/>
	<polygon fill="#982439" points="16.232,65.907 16.482,65.689 15.549,64.561 16.787,63.543 17.855,64.811 18.131,64.588 
		16.787,63.025 13.324,65.854 14.668,67.391 14.943,67.172 13.873,65.934 15.275,64.782 	"/>
	<polygon fill="#982439" points="20.082,66.402 17.443,69.26 18.816,65.273 18.516,64.998 15.465,68.243 15.74,68.491 
		18.326,65.689 17.004,69.615 17.336,69.891 20.357,66.648 	"/>
	<polygon fill="#982439" points="22.471,68.491 22.691,68.189 20.658,66.867 20.441,67.145 21.289,67.719 19.012,71.074 
		19.311,71.292 21.623,67.914 	"/>
	<polygon fill="#982439" points="23.104,68.379 21.014,72.279 21.348,72.443 23.434,68.543 	"/>
	<path fill="#982439" d="M24.97,69.233l-0.686,0.906v0.001l-2.061,2.774l0.332,0.107l0.85-1.152l0.88,0.329c0,0,0,0.002,0,0.002
		l0.383,0.162l-0.137,1.431l0.361,0.138l0.492-4.559L24.97,69.233z M24.724,72.006l-0.438-0.165v0L23.6,71.592l0.685-0.931V70.66
		l0.685-0.908L24.724,72.006z"/>
	<polygon fill="#982439" points="25.301,74.918 25.631,75 26.482,73.736 26.125,73.652 	"/>
	<polygon fill="#982439" points="29.393,74.26 28.844,70.303 28.463,70.247 29.09,74.777 29.531,74.809 31.262,70.577 
		30.904,70.552 	"/>
	<polygon fill="#982439" points="31.592,74.975 31.977,74.975 32.111,70.577 31.73,70.552 	"/>
	<polygon fill="#982439" points="32.637,70.964 33.65,70.909 33.844,74.975 34.229,74.943 34.039,70.881 35.053,70.854 
		35.053,70.493 32.637,70.604 	"/>
	<polygon fill="#982439" points="36.979,71.538 37.581,72.829 36.979,72.913 36.979,73.266 37.719,73.132 38.321,74.449 
		38.708,74.394 36.979,70.685 	"/>
	<polygon fill="#982439" points="36.346,70.303 35.879,74.835 36.234,74.777 36.371,73.349 36.978,73.267 36.978,72.913 
		36.371,73.021 36.619,70.742 36.978,71.54 36.978,70.688 36.785,70.221 	"/>
	<polygon fill="#982439" points="41.645,73.133 40.961,71.484 42.33,70.932 42.195,70.63 40.822,71.154 40.221,69.699 
		41.756,69.092 41.645,68.764 39.723,69.504 41.398,73.6 43.297,72.855 43.186,72.529 	"/>
	<polygon fill="#982439" points="44.121,67.802 43.953,67.5 41.84,68.68 42.004,68.982 42.91,68.491 44.971,72.005 45.305,71.812 
		43.242,68.299 	"/>
	<polygon fill="#982439" points="48.35,66.867 48.129,66.623 47.031,67.582 45.932,66.402 47.168,65.331 46.92,65.055 
		45.383,66.427 48.406,69.697 48.707,69.425 47.25,67.83 	"/>
	
		<rect x="46.866" y="65.8" transform="matrix(-0.7461 -0.6659 0.6659 -0.7461 41.785 147.9034)" fill="#982439" width="4.456" height="0.369"/>
	<path fill="#982439" d="M51.481,63.05c-0.387-0.277-0.715-0.468-1.016-0.58v0.002c-0.218-0.11-0.439-0.136-0.605-0.136
		c-0.44,0-0.825,0.22-1.18,0.716l-0.551,0.713l2.336,1.729V65l-1.842-1.343l0.303-0.411c0.303-0.388,0.604-0.552,0.934-0.552
		c0.166,0,0.357,0.082,0.605,0.19v-0.001c0.247,0.141,0.495,0.276,0.77,0.495c0.605,0.44,0.959,0.801,1.07,1.1
		c0.082,0.301,0,0.633-0.303,1.015l-0.301,0.414L50.466,65v0.492l1.262,0.908l0.578-0.743c0.355-0.465,0.468-0.905,0.355-1.29
		C52.526,63.982,52.139,63.542,51.481,63.05z"/>
	<polygon fill="#982439" points="53.816,62.83 52.225,61.952 52.965,60.688 52.66,60.523 51.951,61.786 50.52,60.988 51.348,59.591 
		51.039,59.426 50.025,61.182 53.924,63.352 54.941,61.594 54.641,61.427 	"/>
	<path fill="#982439" d="M55.33,58.056c-0.276-0.111-0.524-0.14-0.77-0.082c-0.223,0.053-0.467,0.242-0.77,0.492
		c-0.029,0.028-0.056,0.081-0.111,0.11c-0.274,0.274-0.467,0.438-0.631,0.491c-0.11,0.027-0.19,0.027-0.305,0.027
		c-0.082-0.027-0.192-0.051-0.299-0.082c-0.218-0.11-0.359-0.247-0.441-0.438c-0.084-0.221-0.084-0.414,0.029-0.631
		c0.082-0.219,0.217-0.33,0.412-0.412c0.164-0.056,0.381-0.028,0.631,0.052l0.137-0.332h-0.025
		c-0.303-0.137-0.608-0.161-0.881-0.054c-0.274,0.085-0.465,0.306-0.604,0.634c-0.137,0.301-0.164,0.607-0.055,0.879
		c0.11,0.301,0.326,0.493,0.631,0.633c0.274,0.137,0.547,0.164,0.797,0.11c0.221-0.059,0.497-0.219,0.768-0.469
		c0.029-0.05,0.111-0.11,0.191-0.193c0.198-0.217,0.36-0.327,0.471-0.38c0.111-0.058,0.219-0.086,0.328-0.086
		s0.22,0.028,0.355,0.086c0.25,0.109,0.414,0.271,0.494,0.463c0.084,0.219,0.084,0.439-0.055,0.717
		c-0.08,0.215-0.242,0.354-0.465,0.438c-0.248,0.057-0.494,0.025-0.799-0.084l-0.164,0.328c0.416,0.166,0.772,0.196,1.074,0.088
		c0.33-0.084,0.549-0.303,0.717-0.658c0.162-0.358,0.162-0.688,0.053-0.962C55.935,58.439,55.684,58.217,55.33,58.056z"/>
</g>
<rect x="0.178" fill="none" width="165.363" height="75"/>
</svg>
